<?xml version="1.0" encoding="UTF-8"?><svg xmlns="http://www.w3.org/2000/svg" viewBox="0 0 90 33.73"><defs><style>.d{fill:none;}.e{fill:#de624b;}</style></defs><g id="a"/><g id="b"><g id="c"><g><path class="d" d="M40.71,8.18c-1.12-1.12-2.44-2.01-3.92-2.65-1.48-.64-3.09-.97-4.77-.97-2.19,0-4.26,.56-6.14,1.66-1.89,1.1-3.39,2.62-4.48,4.5-1.09,1.88-1.64,3.96-1.64,6.16s.55,4.28,1.64,6.18c1.09,1.89,2.59,3.41,4.48,4.51,1.88,1.1,3.95,1.66,6.14,1.66s4.26-.56,6.14-1.66c1.88-1.1,3.39-2.62,4.48-4.51,1.09-1.89,1.64-3.97,1.64-6.18,0-1.68-.32-3.29-.94-4.78-.63-1.49-1.51-2.81-2.63-3.93Z"/><path class="d" d="M42.08,6.85c-1.32-1.32-2.83-2.36-4.56-3.1-1.72-.74-3.56-1.11-5.5-1.11-2.57,0-4.94,.63-7.11,1.9-2.17,1.27-3.9,3.01-5.18,5.21-1.28,2.2-1.92,4.59-1.92,7.16s.64,4.95,1.92,7.15c1.28,2.2,3,3.93,5.18,5.2,2.17,1.27,4.54,1.9,7.11,1.9,1.95,0,3.77-.37,5.48-1.1,1.71-.73,3.22-1.76,4.54-3.08,1.32-1.32,2.35-2.85,3.07-4.58,.72-1.73,1.09-3.57,1.09-5.51s-.36-3.78-1.07-5.49c-.72-1.71-1.73-3.23-3.05-4.56Zm2.04,15.12c-.67,1.61-1.61,3.03-2.81,4.23-1.2,1.2-2.62,2.16-4.22,2.85-1.6,.69-3.31,1.04-5.07,1.04-2.38,0-4.6-.59-6.59-1.76-1.99-1.17-3.59-2.78-4.76-4.8-1.17-2.02-1.76-4.25-1.76-6.63s.59-4.61,1.76-6.61c1.17-2,2.77-3.62,4.76-4.79,1.99-1.18,4.2-1.77,6.59-1.77,1.76,0,3.47,.34,5.07,1.02,1.6,.68,3.02,1.63,4.22,2.84,1.2,1.21,2.14,2.63,2.81,4.23,.67,1.6,1.01,3.31,1.01,5.09s-.34,3.47-1.01,5.08Z"/><path class="d" d="M72.66,19.77h9.95l-4.98-13.41-4.98,13.41Zm7.48-1.11l-2.5-6.82-2.48,6.86h-.99l3.46-9.31,3.43,9.28h-.93Z"/><path class="e" d="M11,21.63c0,1.45-.1,2.66-.28,3.61-.19,.95-.53,1.87-1.01,2.73-.83,1.47-2.04,2.65-3.61,3.53-1.57,.88-3.28,1.33-5.09,1.33-.3,0-.61-.02-.84-.03H.03v.87h.11c.64,.05,.82,.06,.86,.06,1.85,0,3.61-.43,5.23-1.29,1.62-.85,2.92-2.01,3.86-3.43,.67-1,1.14-2.06,1.4-3.15,.26-1.09,.38-2.52,.38-4.24V.96h-.88V21.63Z"/><path class="e" d="M.82,31.75c1.56,0,3.02-.35,4.38-1.06,1.36-.71,2.44-1.68,3.24-2.91,.56-.84,.95-1.74,1.17-2.7,.22-.96,.33-2.22,.33-3.77V.96h-2.41V21.8c0,1.43-.18,2.62-.53,3.57-.35,.95-.93,1.77-1.74,2.45-.58,.5-1.31,.9-2.2,1.21-.89,.31-1.79,.47-2.71,.47h-.35v2.22c.23,0,.4,0,.5,.01,.1,0,.21,.01,.32,.01Z"/><path class="e" d="M41.31,7.57c-1.2-1.21-2.62-2.16-4.22-2.84-1.6-.68-3.31-1.02-5.07-1.02-2.38,0-4.6,.6-6.59,1.77-1.99,1.18-3.59,2.79-4.76,4.79-1.17,2-1.76,4.23-1.76,6.61s.59,4.62,1.76,6.63c1.17,2.02,2.77,3.63,4.76,4.8,1.99,1.17,4.2,1.76,6.59,1.76,1.76,0,3.47-.35,5.07-1.04,1.6-.69,3.02-1.65,4.22-2.85,1.2-1.2,2.15-2.62,2.81-4.23,.67-1.61,1.01-3.32,1.01-5.08s-.34-3.49-1.01-5.09c-.67-1.6-1.61-3.02-2.81-4.23Zm1.33,15.5c-1.09,1.89-2.6,3.41-4.48,4.51-1.88,1.1-3.95,1.66-6.14,1.66s-4.26-.56-6.14-1.66c-1.89-1.1-3.39-2.62-4.48-4.51-1.09-1.89-1.64-3.97-1.64-6.18s.55-4.28,1.64-6.16c1.09-1.88,2.59-3.4,4.48-4.5,1.88-1.1,3.95-1.66,6.14-1.66,1.68,0,3.29,.32,4.77,.97,1.48,.64,2.8,1.53,3.92,2.65,1.12,1.12,2,2.44,2.63,3.93,.63,1.49,.94,3.1,.94,4.78,0,2.2-.55,4.28-1.64,6.18Z"/><path class="e" d="M40.34,2.56c-2.56-1.49-5.33-2.23-8.32-2.23s-5.76,.74-8.32,2.23c-2.55,1.49-4.57,3.5-6.05,6.04-1.48,2.54-2.22,5.3-2.22,8.29s.74,5.78,2.22,8.32c1.48,2.54,3.5,4.55,6.05,6.04,2.55,1.49,5.33,2.23,8.32,2.23s5.76-.74,8.32-2.23c2.55-1.49,4.57-3.5,6.05-6.04,1.48-2.54,2.22-5.31,2.22-8.32s-.74-5.76-2.22-8.29c-1.48-2.54-3.5-4.55-6.05-6.04Zm4.78,19.85c-.72,1.73-1.75,3.26-3.07,4.58-1.32,1.32-2.84,2.35-4.54,3.08-1.71,.73-3.53,1.1-5.48,1.1-2.57,0-4.94-.63-7.11-1.9-2.17-1.27-3.9-3-5.18-5.2-1.28-2.2-1.92-4.58-1.92-7.15s.64-4.96,1.92-7.16c1.28-2.2,3-3.94,5.18-5.21,2.17-1.27,4.54-1.9,7.11-1.9,1.95,0,3.78,.37,5.5,1.11,1.72,.74,3.24,1.77,4.56,3.1,1.32,1.32,2.33,2.84,3.05,4.56,.72,1.71,1.07,3.54,1.07,5.49s-.36,3.79-1.09,5.51Z"/><polygon class="e" points="67.97 .96 48.84 .96 48.84 3.2 56.5 3.2 56.5 32.85 58.89 32.85 58.89 3.2 67.97 3.2 67.97 .96"/><polygon class="e" points="67.99 4.25 59.95 4.25 59.95 32.85 60.84 32.85 60.84 5.12 67.99 5.12 67.99 4.25"/><rect class="e" x="48.9" y="4.25" width="6.57" height=".87"/><polygon class="e" points="82.5 23.05 72.71 23.05 69.08 32.85 70.08 32.85 73.34 23.94 81.95 23.94 85.17 32.85 86.15 32.85 82.53 23.12 82.5 23.05"/><polygon class="e" points="74.18 18.7 75.16 18.7 77.64 11.84 80.14 18.66 81.07 18.66 77.64 9.39 74.18 18.7"/><path class="e" d="M77.64,0l-12.36,32.85h2.55l3.97-10.84h11.68l3.97,10.84h2.55L77.64,0Zm-4.98,19.77l4.98-13.41,4.98,13.41h-9.95Z"/></g></g></g></svg>